Coordinates
version=1
nRows=9
nColumns=36
inDegrees=yes

Units are S.I. units (second, meters, Newtons, ...)
If the header above contains a line with 'inDegrees', this indicates whether rotational values are in degrees (yes) or radians (no).

endheader
time	pelvis_tilt	pelvis_list	pelvis_rotation	pelvis_tx	pelvis_ty	pelvis_tz	hip_flexion_r	hip_adduction_r	hip_rotation_r	knee_angle_r	knee_angle_r_beta	ankle_angle_r	subtalar_angle_r	mtp_angle_r	hip_flexion_l	hip_adduction_l	hip_rotation_l	knee_angle_l	knee_angle_l_beta	ankle_angle_l	subtalar_angle_l	mtp_angle_l	lumbar_extension	lumbar_bending	lumbar_rotation	arm_flex_r	arm_add_r	arm_rot_r	elbow_flex_r	pro_sup_r	arm_flex_l	arm_add_l	arm_rot_l	elbow_flex_l	pro_sup_l
      1.34000000	    -17.66051728	     -0.25122870	     -0.60809193	     -0.72513501	      1.31635885	     -0.57716633	     20.75628207	     -2.35600491	     -0.16800121	     41.69259635	      0.72767308	    -27.03363750	    -11.45165689	     -5.71322698	     22.00926382	     -2.52872939	      4.45363938	     43.53150262	      0.75976805	    -28.85032152	    -18.66220144	     -5.71322698	      1.67470152	      1.52486483	      0.20738323	     12.70161370	    -15.72870674	      4.73094604	     69.89733558	    105.03112118	     20.21725660	    -10.83755303	      4.20635053	     49.68636203	    105.05755186
      1.35000000	    -17.60881925	     -0.26344744	     -0.57486350	     -0.71565827	      1.31818087	     -0.57740641	     22.15716233	     -2.50481464	     -0.26543452	     43.52992940	      0.75974059	    -26.32876067	    -11.63362097	     -5.74428480	     23.25583310	     -2.74773532	      4.57345027	     45.00161403	      0.78542633	    -28.43984397	    -18.47713639	     -5.74428480	      1.20795379	      1.58582482	      0.11400288	     11.35452019	    -15.94147561	      4.07412202	     69.38344751	    105.18346615	     18.95323246	    -11.34274749	      4.11453946	     49.54086051	    105.27160165
      1.36000000	    -17.46924818	     -0.23016284	     -0.59258895	     -0.70624075	      1.31921559	     -0.57751570	     23.40680410	     -2.71479892	     -0.38904782	     45.01088175	      0.78558809	    -25.59494653	    -11.38876178	     -5.79381456	     24.36348720	     -2.96775275	      4.57980745	     46.19441957	      0.80624472	    -27.81555504	    -17.69865548	     -5.79381456	      0.54431860	      1.58231924	      0.16194269	      9.86519613	    -16.06511194	      3.03329534	     68.88217457	    105.42044064	     17.67095823	    -11.80489369	      3.82377057	     49.40658430	    105.63967483
      1.37000000	    -17.01182404	     -0.27199230	     -0.69779513	     -0.69698242	      1.31982510	     -0.57735049	     24.23227096	     -2.81032875	     -0.51970286	     46.00623078	      0.80296020	    -25.50565305	    -11.38288445	     -5.80309492	     25.07205511	     -3.32077310	      4.45560498	     47.05277601	      0.82122586	    -27.77641938	    -17.43565601	     -5.80309492	     -0.60763106	      1.65248670	      0.25516171	      8.58813379	    -16.36846826	      2.55529847	     68.19022196	    105.40584239	     16.51331743	    -12.36868663	      3.53571449	     49.03796827	    105.65371183
      1.38000000	    -17.14854933	     -0.27485018	     -0.86576518	     -0.68800712	      1.31867623	     -0.57694981	     25.68659039	     -2.87360237	     -0.48761386	     46.70276249	      0.81511698	    -24.89100645	    -11.10455101	     -5.83691464	     26.44753636	     -3.71299856	      4.20593653	     47.76445768	      0.83364705	    -26.98123603	    -16.26462834	     -5.83691464	     -1.12087101	      1.65100127	      0.51730318	      6.84179954	    -16.20426269	      0.78705456	     67.52790559	    105.47679898	     14.98994386	    -12.77792910	      2.66757203	     49.06076044	    105.79169774
      1.39000000	    -16.66742984	     -0.26436417	     -0.94477959	     -0.67878736	      1.31759810	     -0.57692624	     26.25612073	     -3.03507879	     -0.61061370	     46.76012646	      0.81611817	    -24.85611582	    -11.04512144	     -5.84019744	     26.97786956	     -3.96467576	      4.07346821	     47.93763214	      0.83666952	    -26.99732401	    -16.10693478	     -5.84019744	     -2.42122947	      1.67368637	      0.54243089	      5.40140595	    -16.57936515	      0.50251104	     66.89665493	    105.44405021	     13.57112075	    -13.32064081	      2.49016206	     48.55779101	    105.74901527
      1.40000000	    -16.48808174	     -0.28164862	     -1.03798936	     -0.66966374	      1.31505170	     -0.57679619	     27.12282204	     -3.21603552	     -0.88901263	     46.59366808	      0.81321292	    -23.83579428	    -10.02308780	     -6.03281086	     27.94438777	     -4.46400441	      3.56614144	     48.12464835	      0.83993357	    -26.00108284	    -13.85931702	     -6.03281086	     -3.44081963	      1.67311264	      1.29568192	      3.03330995	    -16.15347423	     -2.73899060	     66.50479258	    106.54981722	     12.40667668	    -13.37660449	      2.19395043	     48.13221580	    106.35700475
      1.41000000	    -16.27432139	     -0.28629464	     -1.04703070	     -0.66039067	      1.31177409	     -0.57688366	     27.76211649	     -3.38387197	     -1.13480798	     45.88068088	      0.80076894	    -23.56490908	     -9.92758703	     -6.05744700	     28.73389445	     -4.79422642	      3.26208327	     47.82092109	      0.83463252	    -26.29198951	    -13.29540212	     -6.05744700	     -4.43132171	      1.67621304	      1.39181079	      1.33140770	    -16.09902165	     -3.94015511	     65.27945349	    106.42311291	     10.79986054	    -13.72741038	      1.70386904	     47.78702956	    106.26427530
      1.42000000	    -16.14316279	     -0.27539103	     -0.94448548	     -0.65092091	      1.30743048	     -0.57719112	     28.34319414	     -3.63406547	     -1.53284805	     44.75581453	      0.78113632	    -23.36539353	     -9.82791821	     -6.08151165	     29.52187790	     -5.00561504	      3.09985972	     47.20787005	      0.82393277	    -26.27006937	    -12.77694740	     -6.08151165	     -5.32308677	      1.70242615	      1.41635683	     -0.50094322	    -15.96972350	     -5.27835419	     64.10280122	    106.31412389	      9.14150343	    -13.97834492	      0.96571983	     47.37295081	    106.16060773
